<svg width="200" height="63" viewBox="0 0 200 63" fill="none" xmlns="http://www.w3.org/2000/svg">
<path d="M84.8071 36.6733C84.0622 39.2579 82.691 41.2651 80.6934 42.6949C78.6957 44.1247 76.3183 44.8404 73.5611 44.8419C69.8736 44.8419 66.9074 43.69 64.6624 41.3863C62.4175 39.0827 61.2951 36.0338 61.2951 32.2396C61.2951 28.5047 62.4256 25.424 64.6867 22.9976C66.9478 20.5712 69.8287 19.3572 73.3293 19.3557C76.9521 19.3557 79.8329 20.5933 81.9719 23.0685C84.1108 25.5437 85.1795 28.8965 85.178 33.1268V33.7789H67.9923C68.0232 35.8637 68.5266 37.451 69.5026 38.5407C70.4786 39.6305 71.8491 40.1746 73.6141 40.1731C75.9371 40.1731 77.5637 39.0065 78.4941 36.6733H84.8071ZM78.4875 29.5759C78.3402 27.9894 77.8287 26.6904 76.9528 25.679C76.0769 24.6677 74.8691 24.162 73.3293 24.162C72.6591 24.142 71.9918 24.26 71.3687 24.5087C70.7455 24.7574 70.1796 25.1315 69.7058 25.6081C68.746 26.5736 68.1726 27.8962 67.9857 29.5759H78.4875Z" fill="#4F8FC0"/>
<path d="M102.88 28.4581V34.3866H88.8965V28.4581H102.88Z" fill="#4F8FC0"/>
<path d="M144.797 44.141H138.104V29.7644C138.104 28.1794 137.857 26.958 137.362 26.1004C136.868 25.2428 135.845 24.8155 134.295 24.8185C131.228 24.8185 129.694 26.7473 129.694 30.605V44.1343H123.096V29.485C123.096 27.9916 122.848 26.8324 122.352 26.0073C121.856 25.1822 120.899 24.7704 119.481 24.7719C116.291 24.7719 114.695 26.8723 114.694 31.073V44.141H108.087V20.0566H114.363V23.3702C116.25 20.7264 118.79 19.4045 121.983 19.4045C125.297 19.4045 127.558 20.7264 128.768 23.3702C130.682 20.7264 133.299 19.4045 136.62 19.4045C139.253 19.4045 141.274 20.1742 142.684 21.7134C144.094 23.2526 144.799 25.3301 144.799 27.9457L144.797 44.141Z" fill="#4F8FC0"/>
<path d="M172.491 36.6733C171.746 39.2579 170.376 41.2651 168.38 42.6949C166.384 44.1247 164.006 44.8404 161.245 44.8419C157.558 44.8419 154.592 43.69 152.347 41.3863C150.102 39.0827 148.979 36.0338 148.979 32.2396C148.979 28.5047 150.11 25.424 152.371 22.9976C154.632 20.5712 157.513 19.3572 161.014 19.3557C164.638 19.3557 167.519 20.5933 169.656 23.0685C171.794 25.5437 172.862 28.8965 172.862 33.1268V33.7789H155.67C155.701 35.8637 156.204 37.451 157.18 38.5407C158.156 39.6305 159.527 40.1746 161.292 40.1731C163.616 40.1731 165.243 39.0065 166.172 36.6733H172.491ZM166.172 29.5759C166.017 27.9894 165.502 26.6904 164.626 25.679C163.75 24.6677 162.542 24.162 161.002 24.162C160.332 24.142 159.665 24.26 159.042 24.5087C158.419 24.7574 157.853 25.1315 157.379 25.6081C156.419 26.5736 155.846 27.8962 155.659 29.5759H166.172Z" fill="#4F8FC0"/>
<path d="M200 44.141H193.773V41.0603C192.194 43.5503 189.777 44.7953 186.524 44.7953C183.21 44.7953 180.569 43.636 178.601 41.3176C176.633 38.9991 175.65 35.894 175.651 32.0023C175.651 28.2067 176.604 25.1578 178.508 22.8556C180.413 20.5534 182.961 19.4023 186.153 19.4023C187.603 19.3962 189.036 19.7144 190.348 20.3338C191.618 20.9164 192.692 21.8573 193.44 23.0419V10.9077H199.991L200 44.141ZM193.68 32.0511C193.68 29.7179 193.177 27.8977 192.17 26.5906C191.163 25.2835 189.765 24.6307 187.975 24.6322C186.177 24.6322 184.783 25.285 183.792 26.5906C182.802 27.8962 182.306 29.7009 182.304 32.0045C182.304 34.3393 182.808 36.1676 183.815 37.4894C184.821 38.8113 186.208 39.473 187.975 39.4745C189.8 39.4745 191.209 38.8283 192.203 37.536C193.197 36.2437 193.689 34.4154 193.68 32.0511Z" fill="#4F8FC0"/>
<path d="M35.0008 46.8114C31.8874 44.4449 32.6293 47.1596 32.6293 47.1596C32.9097 49.708 33.3204 56.619 23.8278 57.5129C14.3351 58.4067 7.70853 46.2148 23.3353 41.4485C37.3193 37.1901 37.5203 32.4482 37.4032 31.5011C37.5159 30.5541 37.3193 25.821 23.3353 21.5537C7.71073 16.7852 14.3351 4.58666 23.83 5.48935C33.3249 6.39204 32.9119 13.2942 32.6315 15.8426C32.6315 15.8426 31.8896 18.5573 35.003 16.1908C35.003 16.1908 39.2559 12.9127 39.2559 9.53705C39.2559 6.16138 39.2559 0 20.8645 0C2.47309 0 0.00220774 7.85808 0.00220774 10.7658C0.00220774 13.099 2.38918 20.2607 23.501 27.1784H23.4811C24.1533 27.4214 24.7852 27.7646 25.3558 28.1964C27.703 29.9863 27.7737 33.6015 24.4615 35.3936C24.2915 35.4845 23.4723 35.8172 23.2757 35.8815H23.3C2.36931 42.7504 0 49.1668 0 51.9747C0 54.5298 2.47088 63 20.8623 63C39.2536 63 39.2536 56.8475 39.2536 53.4629C39.2536 50.0784 35.0008 46.8114 35.0008 46.8114Z" fill="#53D2DC"/>
<path d="M10.908 26.6394C11.767 24.3905 8.69991 25.5305 8.69991 25.5305C8.69991 25.5305 2.94336 27.6974 2.94336 31.6808C2.94778 35.6375 8.70433 37.8333 8.70433 37.8333C8.70433 37.8333 12.0805 38.8402 10.9124 36.7243C10.0623 35.1895 9.17466 33.8743 8.90968 32.8385C8.71525 32.0783 8.71525 31.281 8.90968 30.5208C9.17024 29.4895 10.2831 28.2785 10.908 26.6394Z" fill="#4F8FC0"/>
</svg>
