<svg width="25" height="24" viewBox="0 0 25 24" fill="none" xmlns="http://www.w3.org/2000/svg">
<g clip-path="url(#clip0_2420_16516)">
<path d="M19.5 5H16.5V4C16.5 3.20435 16.1839 2.44129 15.6213 1.87868C15.0587 1.31607 14.2956 1 13.5 1H11.5C10.7043 1 9.94129 1.31607 9.37868 1.87868C8.81607 2.44129 8.5 3.20435 8.5 4V5H5.5C4.1744 5.00159 2.90356 5.52888 1.96622 6.46622C1.02888 7.40356 0.501588 8.67441 0.5 10L0.5 18C0.501588 19.3256 1.02888 20.5965 1.96622 21.5338C2.90356 22.4711 4.1744 22.9984 5.5 23H19.5C20.8256 22.9984 22.0964 22.4711 23.0338 21.5338C23.9711 20.5965 24.4984 19.3256 24.5 18V10C24.4984 8.67441 23.9711 7.40356 23.0338 6.46622C22.0964 5.52888 20.8256 5.00159 19.5 5ZM10.5 4C10.5 3.73479 10.6054 3.48043 10.7929 3.29289C10.9804 3.10536 11.2348 3 11.5 3H13.5C13.7652 3 14.0196 3.10536 14.2071 3.29289C14.3946 3.48043 14.5 3.73479 14.5 4V5H10.5V4ZM22.5 18C22.5 18.7957 22.1839 19.5587 21.6213 20.1213C21.0587 20.6839 20.2956 21 19.5 21H5.5C4.70435 21 3.94129 20.6839 3.37868 20.1213C2.81607 19.5587 2.5 18.7957 2.5 18V10C2.5 9.20436 2.81607 8.44129 3.37868 7.87868C3.94129 7.31607 4.70435 7 5.5 7H19.5C20.2956 7 21.0587 7.31607 21.6213 7.87868C22.1839 8.44129 22.5 9.20436 22.5 10V18ZM16.5 14C16.5 14.2652 16.3946 14.5196 16.2071 14.7071C16.0196 14.8947 15.7652 15 15.5 15H13.5V17C13.5 17.2652 13.3946 17.5196 13.2071 17.7071C13.0196 17.8947 12.7652 18 12.5 18C12.2348 18 11.9804 17.8947 11.7929 17.7071C11.6054 17.5196 11.5 17.2652 11.5 17V15H9.5C9.23478 15 8.98043 14.8947 8.79289 14.7071C8.60535 14.5196 8.5 14.2652 8.5 14C8.5 13.7348 8.60535 13.4804 8.79289 13.2929C8.98043 13.1054 9.23478 13 9.5 13H11.5V11C11.5 10.7348 11.6054 10.4804 11.7929 10.2929C11.9804 10.1054 12.2348 10 12.5 10C12.7652 10 13.0196 10.1054 13.2071 10.2929C13.3946 10.4804 13.5 10.7348 13.5 11V13H15.5C15.7652 13 16.0196 13.1054 16.2071 13.2929C16.3946 13.4804 16.5 13.7348 16.5 14Z" fill="#6A6975"/>
</g>
<defs>
<clipPath id="clip0_2420_16516">
<rect width="24" height="24" fill="white" transform="translate(0.5)"/>
</clipPath>
</defs>
</svg>
