<svg width="61" height="60" viewBox="0 0 61 60" fill="none" xmlns="http://www.w3.org/2000/svg">
<path fill-rule="evenodd" clip-rule="evenodd" d="M60.4975 29.6138C60.4815 28.3712 59.3807 27.4555 58.1429 27.5645C56.905 27.6736 56.0004 28.7666 56 30.0092C55.9984 34.4601 54.8314 38.8473 52.597 42.7268C49.9871 47.2582 46.0472 50.8777 41.3111 53.0948C36.5751 55.3118 31.2719 56.0192 26.1203 55.121C20.9687 54.2229 16.2178 51.7627 12.5115 48.0738C8.80506 44.3849 6.3224 39.6456 5.39992 34.4984C4.47745 29.3511 5.15975 24.0446 7.35438 19.2982C9.549 14.5517 13.1498 10.5947 17.6689 7.96341C21.5377 5.7107 25.9195 4.52294 30.3702 4.50033C31.6129 4.49402 32.7016 3.58424 32.8048 2.3459C32.908 1.10755 31.987 0.0111356 30.7444 0.000998169C25.3721 -0.0428312 20.0712 1.35739 15.4046 4.0746C10.088 7.17022 5.85177 11.8255 3.26986 17.4096C0.687944 22.9937 -0.11477 29.2366 0.970499 35.2922C2.05577 41.3478 4.97654 46.9234 9.337 51.2633C13.6975 55.6032 19.2868 58.4975 25.3474 59.5542C31.4081 60.6108 37.6471 59.7786 43.2189 57.1703C48.7908 54.562 53.426 50.3038 56.4965 44.9727C59.1916 40.2933 60.5667 34.9859 60.4975 29.6138ZM58.7957 11.4824C59.8186 10.4142 59.8186 8.68237 58.7957 7.61419C57.7728 6.54602 56.1144 6.54602 55.0915 7.61419L29.0494 34.0261L19.9878 24.5634C18.9649 23.4952 17.3064 23.4952 16.2835 24.5634C15.2606 25.6316 15.2606 27.3634 16.2835 28.4316L27.1973 39.8284C28.2202 40.8966 29.8786 40.8966 30.9015 39.8284L58.7957 11.4824Z" fill="#4F8FC0"/>
</svg>
