<svg width="25" height="24" viewBox="0 0 25 24" fill="none" xmlns="http://www.w3.org/2000/svg">
<path fill-rule="evenodd" clip-rule="evenodd" d="M13.4571 2.29289C13.0666 1.90237 12.4334 1.90237 12.0429 2.29289L3.04292 11.2929C2.75692 11.5789 2.67137 12.009 2.82615 12.3827C2.98093 12.7564 3.34557 13 3.75003 13H4.75003V19C4.75003 19.7957 5.0661 20.5587 5.62871 21.1213C6.19132 21.6839 6.95438 22 7.75003 22H17.75C18.5457 22 19.3087 21.6839 19.8713 21.1213C20.434 20.5587 20.75 19.7957 20.75 19V13H21.75C22.1545 13 22.5191 12.7564 22.6739 12.3827C22.8287 12.009 22.7431 11.5789 22.4571 11.2929L13.4571 2.29289Z" fill="#4F8FC0"/>
<path d="M9.75 21V15C9.75 14.4696 9.96071 13.9609 10.3358 13.5858C10.7109 13.2107 11.2196 13 11.75 13H13.75C14.2804 13 14.7891 13.2107 15.1642 13.5858C15.5393 13.9609 15.75 14.4696 15.75 15V21" stroke="white" stroke-width="2" stroke-linecap="square" stroke-linejoin="round"/>
</svg>
