<svg width="20" height="20" viewBox="0 0 20 20" fill="none" xmlns="http://www.w3.org/2000/svg">
<path d="M8.95621 0.657845C9.39901 -0.21928 10.601 -0.219282 11.0438 0.657843L13.3363 5.19907C13.5071 5.53732 13.8183 5.77365 14.1789 5.83885L19.0199 6.71425C19.9549 6.88333 20.3263 8.07804 19.665 8.78921L16.2409 12.4712C15.9859 12.7455 15.867 13.1279 15.9191 13.5064L16.6184 18.5887C16.7535 19.5703 15.781 20.3087 14.9295 19.8711L10.5207 17.6055C10.1924 17.4367 9.80764 17.4367 9.47926 17.6055L5.07049 19.8711C4.21895 20.3087 3.24653 19.5703 3.38161 18.5887L4.08094 13.5064C4.13303 13.1279 4.01414 12.7455 3.7591 12.4712L0.335006 8.78922C-0.326349 8.07804 0.0450791 6.88333 0.980101 6.71425L5.82107 5.83885C6.18165 5.77365 6.49289 5.53732 6.66365 5.19907L8.95621 0.657845Z" fill="#EDB447"/>
</svg>
