<svg width="85" height="87" viewBox="0 0 85 87" fill="none" xmlns="http://www.w3.org/2000/svg">
<path d="M34.7332 51.5706C30.4488 51.5706 26.7852 48.3551 26.2111 44.0909C25.9036 41.8053 26.5014 39.5366 27.8953 37.7022C29.2892 35.8679 31.3117 34.6878 33.5907 34.3792C33.9755 34.3271 34.3662 34.3008 34.7521 34.3008C39.0365 34.3008 42.7001 37.5161 43.2742 41.7803C43.5817 44.0659 42.9838 46.3346 41.5897 48.169C40.1959 50.0033 38.1731 51.1834 35.8944 51.492C35.5098 51.5443 35.1191 51.5706 34.7332 51.5706ZM34.7521 36.5085C34.4644 36.5085 34.1727 36.5282 33.8852 36.5673C32.1891 36.7969 30.6837 37.6753 29.6462 39.0406C28.6087 40.4058 28.1636 42.0945 28.3926 43.7955C28.8198 46.9695 31.5457 49.3629 34.7332 49.3629C35.0209 49.3629 35.3123 49.3432 35.6 49.3042C37.2961 49.0746 38.8016 48.1959 39.8391 46.8309C40.8763 45.4654 41.3216 43.7767 41.0927 42.0757C40.6654 38.9019 37.9396 36.5085 34.7521 36.5085Z" fill="black"/>
<path d="M29.675 74.7088C29.6583 74.7088 29.6416 74.7084 29.6249 74.7077C26.3566 74.5578 23.6668 72.0892 23.229 68.8375L22.857 66.0736C22.3256 62.1271 23.3584 58.2094 25.7653 55.0417C28.1722 51.8744 31.6648 49.8367 35.5998 49.3039C36.2646 49.2141 36.9393 49.1684 37.6054 49.1684C40.4371 49.1684 43.2 49.9806 45.5948 51.5174C49.2844 53.8849 51.7357 57.7363 52.3213 62.0841L52.6933 64.8479C53.1309 68.0996 51.1904 71.1953 48.0787 72.2091C48.016 72.2294 47.9513 72.2442 47.8859 72.253L29.8221 74.6989C29.7734 74.7057 29.7241 74.7088 29.675 74.7088ZM37.6056 51.3763C37.0377 51.3763 36.4621 51.4154 35.8948 51.492C32.5424 51.9459 29.5667 53.6818 27.5165 56.3803C25.466 59.0788 24.5861 62.4164 25.0387 65.7785L25.4107 68.5423C25.7017 70.7047 27.4694 72.3541 29.6315 72.4972L47.4881 70.0793C49.5351 69.3662 50.8032 67.3058 50.512 65.1435L50.14 62.3797C49.6414 58.6758 47.5524 55.3945 44.4089 53.3774C42.3686 52.0682 40.016 51.3763 37.6056 51.3763Z" fill="black"/>
<path d="M75.0775 87C74.9741 87 74.8697 86.996 74.7647 86.9883L29.5392 83.6242C28.9772 83.5825 28.5374 83.1217 28.5205 82.5566C28.5035 81.9916 28.9149 81.505 29.4734 81.4295L65.0432 76.613C65.5675 76.5421 66.0329 76.2703 66.3538 75.8482C66.6745 75.4261 66.8121 74.904 66.7415 74.3781L57.7192 7.3607C57.675 7.03109 57.7811 6.69861 58.0085 6.4562C58.2359 6.2138 58.5617 6.08641 58.8914 6.11202L80.6267 7.72894C81.7408 7.81173 82.7561 8.3248 83.4853 9.17344C84.2146 10.0223 84.571 11.105 84.4882 12.2225L79.2452 83.1155C79.0843 85.2937 77.2535 87 75.0775 87ZM40.2058 82.204L74.9278 84.7868C76.0256 84.8663 76.97 84.0335 77.0501 82.9524L82.2931 12.0591C82.3323 11.5299 82.1637 11.0169 81.8181 10.6149C81.4727 10.213 80.9917 9.96998 80.4641 9.93068L60.0826 8.41443L68.9232 74.0825C69.0726 75.1928 68.7818 76.2951 68.1047 77.1863C67.4276 78.0776 66.4449 78.6509 65.3379 78.8008L40.2058 82.204Z" fill="black"/>
<path d="M13.5955 18.965C13.0531 18.965 12.5807 18.563 12.5061 18.0089C12.4246 17.4049 12.8471 16.8487 13.4496 16.7673L48.3537 12.041C48.9555 11.9589 49.5104 12.3832 49.5917 12.9872C49.6729 13.5913 49.2505 14.1472 48.6482 14.2289L13.7441 18.9551C13.6943 18.9619 13.6446 18.965 13.5955 18.965Z" fill="black"/>
<path d="M25.681 26.2394C25.1386 26.2394 24.6662 25.8374 24.5916 25.2833C24.5102 24.6792 24.9326 24.1231 25.5351 24.0416L38.6242 22.2693C39.2251 22.1865 39.7807 22.6113 39.8622 23.2155C39.9436 23.8196 39.5212 24.3755 38.9187 24.4571L25.8296 26.2295C25.7799 26.2363 25.7301 26.2394 25.681 26.2394Z" fill="black"/>
<path d="M14.1637 85.6922C12.0817 85.6922 10.3015 84.13 10.0224 82.0583L0.538343 11.6096C0.388876 10.4994 0.679447 9.39708 1.35656 8.50583C2.03368 7.61458 3.01634 7.04124 4.12358 6.89134L54.7343 0.0379718C54.921 0.012804 55.1105 0 55.2978 0C57.3798 0 59.16 1.56217 59.4389 3.63366L68.9232 74.0823C69.2316 76.3745 67.6233 78.4911 65.3379 78.8004L14.727 85.654C14.5403 85.6793 14.351 85.6922 14.1637 85.6922ZM55.2978 2.20792C55.2089 2.20792 55.1184 2.21388 55.0288 2.22602L4.41812 9.07939C3.89377 9.15026 3.4282 9.42203 3.10747 9.84414C2.78674 10.2663 2.64894 10.7882 2.71982 11.3142L12.2039 81.7629C12.3359 82.7442 13.1784 83.4845 14.1634 83.4845C14.2526 83.4845 14.3431 83.4783 14.4322 83.4661L65.0429 76.6128C66.1255 76.4662 66.8874 75.4637 66.7412 74.3779L57.2572 3.92927C57.1251 2.94772 56.2827 2.20792 55.2978 2.20792Z" fill="black"/>
</svg>
