<svg width="30" height="47" viewBox="0 0 30 47" fill="none" xmlns="http://www.w3.org/2000/svg">
<path d="M26.2506 34.9228C23.9155 33.1573 24.472 35.1826 24.472 35.1826C24.6823 37.0838 24.9903 42.2396 17.8708 42.9064C10.7513 43.5732 5.7814 34.4777 17.5015 30.9219C27.9895 27.745 28.1402 24.2074 28.0524 23.5008C28.1369 22.7943 27.9895 19.2633 17.5015 16.0798C5.78305 12.5223 10.7513 3.42179 17.8725 4.09523C24.9937 4.76867 24.684 9.9179 24.4736 11.8191C24.4736 11.8191 23.9172 13.8444 26.2523 12.0789C26.2523 12.0789 29.4419 9.6333 29.4419 7.11494C29.4419 4.59659 29.4419 0 15.6484 0C1.85482 0 0.00165581 5.86238 0.00165581 8.03161C0.00165581 9.77229 1.79188 15.1151 17.6257 20.2759H17.6108C18.115 20.4572 18.5889 20.7132 19.0168 21.0354C20.7773 22.3707 20.8303 25.0678 18.3461 26.4047C18.2186 26.4726 17.6042 26.7207 17.4568 26.7687H17.475C1.77698 31.8931 0 36.68 0 38.7748C0 40.6809 1.85316 47 15.6467 47C29.4402 47 29.4402 42.41 29.4402 39.8851C29.4402 37.3601 26.2506 34.9228 26.2506 34.9228Z" fill="white"/>
</svg>
