<svg width="25" height="24" viewBox="0 0 25 24" fill="none" xmlns="http://www.w3.org/2000/svg">
<g clip-path="url(#clip0_2420_16511)">
<path d="M23.957 5.29292L18.957 0.292919C18.7684 0.110761 18.5158 0.00996642 18.2536 0.0122448C17.9914 0.0145233 17.7405 0.119692 17.5551 0.3051C17.3697 0.490508 17.2646 0.741321 17.2623 1.00352C17.26 1.26571 17.3608 1.51832 17.543 1.70692L19.336 3.49992L17.85 4.98292C16.8895 4.27773 15.7089 3.9387 14.5207 4.02688C13.3324 4.11507 12.2147 4.62468 11.369 5.46392L5.29996 11.5359C4.64804 12.1843 4.13118 12.9556 3.7793 13.8051C3.42742 14.6546 3.2475 15.5654 3.24996 16.4849V19.5849L0.542959 22.2929C0.447449 22.3852 0.371267 22.4955 0.318858 22.6175C0.266449 22.7395 0.238862 22.8707 0.237709 23.0035C0.236555 23.1363 0.261857 23.268 0.312137 23.3909C0.362418 23.5138 0.436671 23.6254 0.530564 23.7193C0.624457 23.8132 0.736109 23.8875 0.859005 23.9377C0.981901 23.988 1.11358 24.0133 1.24636 24.0122C1.37914 24.011 1.51036 23.9834 1.63236 23.931C1.75437 23.8786 1.86471 23.8024 1.95696 23.7069L4.66396 20.9999H7.76396C8.68344 21.0024 9.59428 20.8225 10.4438 20.4706C11.2933 20.1187 12.0645 19.6018 12.713 18.9499L18.785 12.8779C19.6248 12.0332 20.135 10.916 20.2234 9.72802C20.3118 8.54007 19.9726 7.35967 19.267 6.39992L20.75 4.91392L22.543 6.70692C22.7316 6.88908 22.9842 6.98987 23.2464 6.98759C23.5086 6.98531 23.7594 6.88014 23.9448 6.69474C24.1302 6.50933 24.2353 6.25852 24.2376 5.99632C24.2399 5.73412 24.1391 5.48152 23.957 5.29292ZM17.372 11.4639L11.3 17.5359C10.8368 18.0015 10.2859 18.3707 9.67908 18.622C9.0723 18.8732 8.42171 19.0017 7.76496 18.9999H5.24996V16.4849C5.25026 16.1573 5.28208 15.8305 5.34496 15.5089L6.54496 16.7089C6.6372 16.8044 6.74755 16.8806 6.86955 16.933C6.99156 16.9854 7.12278 17.013 7.25556 17.0142C7.38834 17.0153 7.52001 16.99 7.64291 16.9397C7.76581 16.8895 7.87746 16.8152 7.97135 16.7213C8.06524 16.6274 8.1395 16.5158 8.18978 16.3929C8.24006 16.27 8.26536 16.1383 8.26421 16.0055C8.26305 15.8727 8.23547 15.7415 8.18306 15.6195C8.13065 15.4975 8.05447 15.3872 7.95896 15.2949L6.21796 13.5539C6.36869 13.3412 6.53587 13.1405 6.71796 12.9539L7.74996 11.9139L9.54296 13.7069C9.73156 13.8891 9.98416 13.9899 10.2464 13.9876C10.5086 13.9853 10.7594 13.8801 10.9448 13.6947C11.1302 13.5093 11.2354 13.2585 11.2376 12.9963C11.2399 12.7341 11.1391 12.4815 10.957 12.2929L9.16396 10.4999L10.75 8.91392L12.543 10.7069C12.7316 10.8891 12.9842 10.9899 13.2464 10.9876C13.5086 10.9853 13.7594 10.8801 13.9448 10.6947C14.1302 10.5093 14.2354 10.2585 14.2376 9.99632C14.2399 9.73412 14.1391 9.48152 13.957 9.29292L12.164 7.49992L12.786 6.87792C13.3575 6.33274 14.1171 6.02858 14.907 6.02858C15.6968 6.02858 16.4564 6.33274 17.028 6.87792L17.372 7.22192C17.9344 7.7845 18.2503 8.54743 18.2503 9.34292C18.2503 10.1384 17.9344 10.9013 17.372 11.4639Z" fill="#6A6975"/>
</g>
<defs>
<clipPath id="clip0_2420_16511">
<rect width="24" height="24" fill="white" transform="translate(0.25)"/>
</clipPath>
</defs>
</svg>
