<svg width="105" height="26" viewBox="0 0 105 26" fill="none" xmlns="http://www.w3.org/2000/svg">
<path d="M18.6053 19.3594C18.0467 21.2876 17.0182 22.7851 15.52 23.8518C14.0218 24.9184 12.2388 25.4523 10.1709 25.4534C7.40521 25.4534 5.18053 24.5941 3.49685 22.8755C1.81316 21.1569 0.971313 18.8823 0.971313 16.0518C0.971313 13.2654 1.81923 10.9671 3.51506 9.15691C5.21089 7.34674 7.37153 6.44109 9.99698 6.43999C12.7141 6.43999 14.8747 7.36328 16.4789 9.20986C18.0831 11.0564 18.8846 13.5577 18.8835 16.7136V17.2001H5.99422C6.01741 18.7555 6.39499 19.9396 7.12698 20.7526C7.85897 21.5656 8.88685 21.9715 10.2106 21.9704C11.9528 21.9704 13.1728 21.1001 13.8706 19.3594H18.6053ZM13.8656 14.0646C13.7552 12.8809 13.3715 11.9119 12.7146 11.1574C12.0577 10.4028 11.1518 10.0256 9.99698 10.0256C9.4943 10.0107 8.99389 10.0987 8.52652 10.2843C8.05915 10.4698 7.63473 10.7489 7.27935 11.1044C6.5595 11.8247 6.12947 12.8114 5.98925 14.0646H13.8656Z" fill="white"/>
<path d="M32.1604 13.2306V17.6535H21.6724V13.2306H32.1604Z" fill="white"/>
<path d="M63.5979 24.9306H58.5783V14.2052C58.5783 13.0227 58.3928 12.1115 58.0218 11.4717C57.6509 10.832 56.8841 10.5132 55.7215 10.5154C53.4207 10.5154 52.2702 11.9543 52.2702 14.8323V24.9256H47.3219V13.9967C47.3219 12.8826 47.1358 12.0178 46.7638 11.4023C46.3917 10.7867 45.674 10.4795 44.6108 10.4806C42.2183 10.4806 41.0215 12.0476 41.0204 15.1814V24.9306H36.0654V6.96286H40.772V9.43489C42.1874 7.46256 44.0925 6.47639 46.4872 6.47639C48.9724 6.47639 50.6688 7.46256 51.5763 9.43489C53.0116 7.46256 54.9746 6.47639 57.4654 6.47639C59.4394 6.47639 60.9553 7.05055 62.013 8.19887C63.0707 9.34719 63.5995 10.897 63.5995 12.8484L63.5979 24.9306Z" fill="white"/>
<path d="M84.3685 19.3594C83.8099 21.2876 82.782 22.7851 81.2849 23.8518C79.7878 24.9184 78.0042 25.4523 75.9341 25.4534C73.1684 25.4534 70.9437 24.5941 69.26 22.8755C67.5763 21.1569 66.7345 18.8823 66.7345 16.0518C66.7345 13.2654 67.5824 10.9671 69.2782 9.15691C70.9741 7.34674 73.1347 6.44109 75.7602 6.43999C78.4784 6.43999 80.639 7.36328 82.2421 9.20986C83.8452 11.0564 84.6467 13.5577 84.6467 16.7136V17.2001H71.7524C71.7756 18.7555 72.1532 19.9396 72.8852 20.7526C73.6172 21.5656 74.6451 21.9715 75.9688 21.9704C77.7122 21.9704 78.9321 21.1001 79.6288 19.3594H84.3685ZM79.6288 14.0646C79.5129 12.8809 79.1264 11.9119 78.4695 11.1574C77.8126 10.4028 76.9067 10.0256 75.7519 10.0256C75.2492 10.0107 74.7488 10.0987 74.2814 10.2843C73.8141 10.4698 73.3896 10.7489 73.0342 11.1044C72.3144 11.8247 71.8844 12.8114 71.7442 14.0646H79.6288Z" fill="white"/>
<path d="M105 24.9306H100.33V22.6323C99.1452 24.4899 97.3329 25.4187 94.8929 25.4187C92.4077 25.4187 90.427 24.5539 88.9509 22.8242C87.4748 21.0946 86.7373 18.7781 86.7384 15.8747C86.7384 13.0431 87.4527 10.7685 88.8813 9.05101C90.31 7.3335 92.2211 6.47474 94.6147 6.47474C95.7022 6.4702 96.777 6.70759 97.7613 7.16969C98.7138 7.6043 99.5193 8.30622 100.08 9.19V0.137474H104.993L105 24.9306ZM100.26 15.9111C100.26 14.1705 99.8827 12.8126 99.1275 11.8374C98.3724 10.8623 97.3235 10.3753 95.981 10.3764C94.6329 10.3764 93.5874 10.8634 92.8444 11.8374C92.1013 12.8115 91.7293 14.1578 91.7282 15.8764C91.7282 17.6182 92.1058 18.9821 92.8609 19.9683C93.6161 20.9545 94.6561 21.4481 95.981 21.4492C97.35 21.4492 98.4072 20.9672 99.1524 20.0031C99.8976 19.039 100.267 17.675 100.26 15.9111Z" fill="white"/>
</svg>
